<svg
              width="11"
              height="19"
              viewBox="0 0 11 19"
              fill="none"
              xmlns="http://www.w3.org/2000/svg"
            >
              <path
                d="M10.0687 6.65513C10.0832 6.52963 9.98512 6.41953 9.85879 6.41953H7.12222C7.0055 6.41953 6.91088 6.32492 6.91088 6.2082V4.6232C6.91088 3.6963 6.98678 3.11249 8.32315 3.11249H9.79968C9.9164 3.11249 10.011 3.01787 10.011 2.90116V0.447051C10.011 0.338701 9.92908 0.2478 9.82121 0.237592C9.06249 0.165793 8.30016 0.130722 7.53705 0.13238C5.08569 0.13238 3.29663 1.62064 3.29663 4.35286V6.2082C3.29663 6.32492 3.20201 6.41953 3.0853 6.41953H0.797271C0.680555 6.41953 0.585938 6.51415 0.585938 6.63087V9.80079C0.585938 9.91753 0.680597 10.0122 0.797341 10.0121L3.08523 10.0114C3.20197 10.0113 3.29663 10.106 3.29663 10.2227V17.8843C3.29663 18.0011 3.39125 18.0957 3.50796 18.0957H6.69955C6.81627 18.0957 6.91088 18.0011 6.91088 17.8843V10.2208C6.91088 10.1041 7.00546 10.0095 7.12215 10.0094L9.49295 10.0087C9.60026 10.0086 9.69051 9.92818 9.70282 9.82159L10.0687 6.65513Z"
                fill="white"
              />
            </svg>