<svg
              width="20"
              height="20"
              viewBox="0 0 20 20"
              fill="none"
              xmlns="http://www.w3.org/2000/svg"
            >
              <path
                d="M19.0179 5.75803C19.0073 4.95773 18.8575 4.16538 18.5752 3.41645C18.3304 2.78472 17.9566 2.211 17.4775 1.73194C16.9985 1.25288 16.4247 0.879022 15.793 0.634245C15.0537 0.356711 14.2726 0.206653 13.4831 0.190444C12.4666 0.145004 12.1443 0.132324 9.56396 0.132324C6.98358 0.132324 6.65284 0.132324 5.64372 0.190444C4.85456 0.20677 4.07389 0.356838 3.33491 0.634245C2.70308 0.878853 2.12927 1.25265 1.65019 1.73173C1.1711 2.21081 0.797309 2.78463 0.552701 3.41645C0.274617 4.1552 0.124877 4.93605 0.109957 5.72527C0.0645201 6.74284 0.0507812 7.06512 0.0507812 9.64551C0.0507812 12.2259 0.0507813 12.5556 0.109957 13.5658C0.125807 14.3562 0.274797 15.136 0.552701 15.8767C0.797721 16.5083 1.17179 17.0818 1.65103 17.5607C2.13027 18.0396 2.70414 18.4132 3.33596 18.6579C4.07291 18.9465 4.85373 19.1073 5.64478 19.1334C6.66235 19.1788 6.98464 19.1925 9.56497 19.1925C12.1453 19.1925 12.4761 19.1925 13.4852 19.1334C14.2747 19.1177 15.0558 18.9681 15.7951 18.6906C16.4266 18.4455 17.0003 18.0715 17.4793 17.5925C17.9583 17.1135 18.3322 16.5399 18.5773 15.9084C18.8552 15.1687 19.0042 14.3889 19.02 13.5975C19.0655 12.581 19.0792 12.2587 19.0792 9.67725C19.0771 7.09682 19.0771 6.76926 19.0179 5.75803ZM9.55762 14.5252C6.85889 14.5252 4.67265 12.339 4.67265 9.64022C4.67265 6.94149 6.85889 4.75525 9.55762 4.75525C10.8531 4.75525 12.0957 5.26991 13.0118 6.18602C13.9279 7.10213 14.4425 8.34464 14.4425 9.64022C14.4425 10.9358 13.9279 12.1783 13.0118 13.0944C12.0957 14.0105 10.8531 14.5252 9.55762 14.5252ZM14.637 5.71365C14.4873 5.71378 14.3392 5.68442 14.201 5.62722C14.0627 5.57002 13.937 5.48612 13.8313 5.38032C13.7255 5.27452 13.6416 5.14889 13.5843 5.01063C13.5272 4.87237 13.4978 4.72418 13.4979 4.57456C13.4979 4.42504 13.5274 4.27698 13.5846 4.13885C13.6418 4.00071 13.7257 3.87519 13.8314 3.76947C13.9371 3.66374 14.0627 3.57988 14.2008 3.52267C14.3389 3.46545 14.487 3.436 14.6364 3.436C14.786 3.436 14.9341 3.46545 15.0722 3.52267C15.2103 3.57988 15.3358 3.66374 15.4416 3.76947C15.5473 3.87519 15.6312 4.00071 15.6884 4.13885C15.7456 4.27698 15.775 4.42504 15.775 4.57456C15.775 5.20433 15.2657 5.71365 14.637 5.71365Z"
                fill="white"
              />
              <path
                d="M9.55764 12.8135C11.3102 12.8135 12.7308 11.3929 12.7308 9.64034C12.7308 7.88784 11.3102 6.46717 9.55764 6.46717C7.80515 6.46717 6.38447 7.88784 6.38447 9.64034C6.38447 11.3929 7.80515 12.8135 9.55764 12.8135Z"
                fill="white"
              />
            </svg>