<svg
              width="22"
              height="18"
              viewBox="0 0 22 18"
              fill="none"
              xmlns="http://www.w3.org/2000/svg"
            >
              <path
                d="M7.01164 17.0952C14.9845 17.0952 19.3466 10.59 19.3466 4.95044C19.3466 4.76753 19.3424 4.58061 19.3342 4.39773C20.1827 3.79353 20.915 3.04515 21.4966 2.18775C20.7064 2.53394 19.8673 2.76003 19.0081 2.8583C19.9128 2.3244 20.5901 1.48565 20.9146 0.497557C20.0636 0.994152 19.1329 1.34446 18.1624 1.53346C17.5084 0.849365 16.6439 0.39642 15.7023 0.244642C14.7607 0.0928651 13.7946 0.250709 12.9533 0.693777C12.1119 1.13684 11.4422 1.84045 11.0478 2.69581C10.6534 3.55118 10.5561 4.51066 10.7711 5.42589C9.04777 5.34077 7.36186 4.89998 5.82271 4.13221C4.28354 3.36441 2.92543 2.28671 1.83642 0.968975C1.28293 1.90854 1.11357 3.02035 1.36274 4.07845C1.61191 5.13654 2.26094 6.06156 3.1779 6.66543C2.48949 6.64391 1.81618 6.46138 1.21357 6.13302V6.18588C1.21295 7.17189 1.55916 8.12767 2.19335 8.89078C2.82754 9.65383 3.71056 10.1771 4.69232 10.3718C4.05462 10.5435 3.38534 10.5686 2.73625 10.4449C3.01328 11.2929 3.55228 12.0345 4.27803 12.5664C5.00378 13.0982 5.88007 13.3937 6.78461 13.4116C5.24898 14.5992 3.35205 15.2434 1.39931 15.2404C1.05301 15.2398 0.70705 15.2189 0.363281 15.1778C2.34705 16.4308 4.6547 17.0963 7.01164 17.0952Z"
                fill="white"
              />
            </svg>