<svg width="703" height="971" viewBox="0 0 703 971" fill="none" xmlns="http://www.w3.org/2000/svg">
<g opacity="0.2" clipPath="url(#clip0_1941_46606)">
<path d="M754.831 422.558L744.051 416.334L595.996 672.773L606.776 678.996L754.831 422.558Z" fill="url(#paint0_linear_1941_46606)"/>
<path d="M797.729 401.148L786.949 394.924L630.779 665.419L641.558 671.643L797.729 401.148Z" fill="url(#paint1_linear_1941_46606)"/>
<path d="M837.831 384.444L827.051 378.221L645.547 692.595L656.326 698.819L837.831 384.444Z" fill="url(#paint2_linear_1941_46606)"/>
<path d="M865.065 390.333L854.285 384.109L662.461 716.359L673.241 722.582L865.065 390.333Z" fill="url(#paint3_linear_1941_46606)"/>
<path d="M897.456 387.12L886.676 380.896L676.42 745.07L687.2 751.294L897.456 387.12Z" fill="url(#paint4_linear_1941_46606)"/>
<path d="M912.598 395.834L695.59 764.828L706.319 771.138L923.327 402.144L912.598 395.834Z" fill="url(#paint5_linear_1941_46606)"/>
<path d="M234.741 159.194L223.961 152.971L132.355 311.636L143.135 317.86L234.741 159.194Z" fill="url(#paint6_linear_1941_46606)"/>
<path d="M191.5 181.499L180.598 175.205L129.626 263.491L140.528 269.785L191.5 181.499Z" fill="url(#paint7_linear_1941_46606)"/>
<path d="M286.78 121.98L276 115.756L126.678 374.388L137.458 380.612L286.78 121.98Z" fill="url(#paint8_linear_1941_46606)"/>
<path d="M326.413 106.052L315.633 99.8281L133.924 414.557L144.704 420.78L326.413 106.052Z" fill="url(#paint9_linear_1941_46606)"/>
<path d="M367.127 88.6045L356.348 82.3809L142.372 452.998L153.152 459.221L367.127 88.6045Z" fill="url(#paint10_linear_1941_46606)"/>
<path d="M401.987 81.1397L391.207 74.916L156.342 481.714L167.122 487.937L401.987 81.1397Z" fill="url(#paint11_linear_1941_46606)"/>
<path d="M432.991 80.3487L422.211 74.125L171.186 508.913L181.966 515.137L432.991 80.3487Z" fill="url(#paint12_linear_1941_46606)"/>
<path d="M463.608 80.2081L452.828 73.9844L185.136 537.64L195.916 543.864L463.608 80.2081Z" fill="url(#paint13_linear_1941_46606)"/>
<path d="M486.845 89.4898L476.027 83.332L204.327 560.643L215.144 566.801L486.845 89.4898Z" fill="url(#paint14_linear_1941_46606)"/>
<path d="M517.038 93.46L506.258 87.2363L221.152 581.053L231.932 587.277L517.038 93.46Z" fill="url(#paint15_linear_1941_46606)"/>
<path d="M531.588 96.9541L239.398 601.615L250.171 607.852L542.36 103.191L531.588 96.9541Z" fill="url(#paint16_linear_1941_46606)"/>
<path d="M567.311 112.202L556.531 105.979L259.177 621.011L269.957 627.235L567.311 112.202Z" fill="url(#paint17_linear_1941_46606)"/>
<path d="M580.065 119.524L279.203 637.703L289.968 643.953L590.829 125.774L580.065 119.524Z" fill="url(#paint18_linear_1941_46606)"/>
<path d="M602.819 156.485L592.039 150.262L300.156 655.818L310.936 662.042L602.819 156.485Z" fill="url(#paint19_linear_1941_46606)"/>
<path d="M615.406 185.627L604.613 179.426L323.138 669.322L333.931 675.523L615.406 185.627Z" fill="url(#paint20_linear_1941_46606)"/>
<path d="M635.791 205.032L625.012 198.809L343.404 686.567L354.184 692.791L635.791 205.032Z" fill="url(#paint21_linear_1941_46606)"/>
<path d="M635.85 257.997L625.07 251.773L366.383 699.833L377.163 706.056L635.85 257.997Z" fill="url(#paint22_linear_1941_46606)"/>
<path d="M637.237 308.485L626.457 302.262L390.192 711.484L400.972 717.708L637.237 308.485Z" fill="url(#paint23_linear_1941_46606)"/>
<path d="M619.122 371.284L413.145 721.242L423.872 727.556L629.849 377.598L619.122 371.284Z" fill="url(#paint24_linear_1941_46606)"/>
<path d="M623.977 436.68L613.184 430.48L440.614 730.952L451.408 737.151L623.977 436.68Z" fill="url(#paint25_linear_1941_46606)"/>
<path d="M628.545 458.857L472.484 726.137L483.234 732.413L639.295 465.133L628.545 458.857Z" fill="url(#paint26_linear_1941_46606)"/>
<path d="M661.451 477.832L650.664 471.621L508.821 717.995L519.609 724.205L661.451 477.832Z" fill="url(#paint27_linear_1941_46606)"/>
<path d="M684.957 466.259L555.387 689.15L566.148 695.406L695.718 472.514L684.957 466.259Z" fill="url(#paint28_linear_1941_46606)"/>
</g>
<defs>
<linearGradient id="paint0_linear_1941_46606" x1="600.817" y1="676.616" x2="783.08" y2="656.53" gradientUnits="userSpaceOnUse">
<stop stopColor="white" stop-opacity="0"/>
<stop offset="0.5" stopColor="white"/>
<stop offset="1" stopColor="white" stop-opacity="0"/>
</linearGradient>
<linearGradient id="paint1_linear_1941_46606" x1="635.574" y1="669.306" x2="821.615" y2="653.545" gradientUnits="userSpaceOnUse">
<stop stopColor="white" stop-opacity="0"/>
<stop offset="0.5" stopColor="white"/>
<stop offset="1" stopColor="white" stop-opacity="0"/>
</linearGradient>
<linearGradient id="paint2_linear_1941_46606" x1="650.264" y1="696.618" x2="845.399" y2="693.485" gradientUnits="userSpaceOnUse">
<stop stopColor="white" stop-opacity="0"/>
<stop offset="0.5" stopColor="white"/>
<stop offset="1" stopColor="white" stop-opacity="0"/>
</linearGradient>
<linearGradient id="paint3_linear_1941_46606" x1="667.146" y1="720.437" x2="865.055" y2="722.02" gradientUnits="userSpaceOnUse">
<stop stopColor="white" stop-opacity="0"/>
<stop offset="0.5" stopColor="white"/>
<stop offset="1" stopColor="white" stop-opacity="0"/>
</linearGradient>
<linearGradient id="paint4_linear_1941_46606" x1="681.048" y1="749.247" x2="882.907" y2="758.621" gradientUnits="userSpaceOnUse">
<stop stopColor="white" stop-opacity="0"/>
<stop offset="0.5" stopColor="white"/>
<stop offset="1" stopColor="white" stop-opacity="0"/>
</linearGradient>
<linearGradient id="paint5_linear_1941_46606" x1="812.644" y1="590.422" x2="801.429" y2="583.801" gradientUnits="userSpaceOnUse">
<stop stopColor="white" stop-opacity="0"/>
<stop offset="0.5" stopColor="white"/>
<stop offset="1" stopColor="white" stop-opacity="0"/>
</linearGradient>
<linearGradient id="paint6_linear_1941_46606" x1="137.351" y1="315.176" x2="275.203" y2="265.325" gradientUnits="userSpaceOnUse">
<stop stopColor="white" stop-opacity="0"/>
<stop offset="0.5" stopColor="white"/>
<stop offset="1" stopColor="white" stop-opacity="0"/>
</linearGradient>
<linearGradient id="paint7_linear_1941_46606" x1="134.808" y1="266.847" x2="213.952" y2="211.168" gradientUnits="userSpaceOnUse">
<stop stopColor="white" stop-opacity="0"/>
<stop offset="0.5" stopColor="white"/>
<stop offset="1" stopColor="white" stop-opacity="0"/>
</linearGradient>
<linearGradient id="paint8_linear_1941_46606" x1="131.495" y1="378.239" x2="314.38" y2="358.835" gradientUnits="userSpaceOnUse">
<stop stopColor="white" stop-opacity="0"/>
<stop offset="0.5" stopColor="white"/>
<stop offset="1" stopColor="white" stop-opacity="0"/>
</linearGradient>
<linearGradient id="paint9_linear_1941_46606" x1="138.641" y1="418.581" x2="333.836" y2="415.544" gradientUnits="userSpaceOnUse">
<stop stopColor="white" stop-opacity="0"/>
<stop offset="0.5" stopColor="white"/>
<stop offset="1" stopColor="white" stop-opacity="0"/>
</linearGradient>
<linearGradient id="paint10_linear_1941_46606" x1="146.989" y1="457.195" x2="349.513" y2="468.045" gradientUnits="userSpaceOnUse">
<stop stopColor="white" stop-opacity="0"/>
<stop offset="0.5" stopColor="white"/>
<stop offset="1" stopColor="white" stop-opacity="0"/>
</linearGradient>
<linearGradient id="paint11_linear_1941_46606" x1="160.894" y1="486.023" x2="366.503" y2="504.597" gradientUnits="userSpaceOnUse">
<stop stopColor="white" stop-opacity="0"/>
<stop offset="0.5" stopColor="white"/>
<stop offset="1" stopColor="white" stop-opacity="0"/>
</linearGradient>
<linearGradient id="paint12_linear_1941_46606" x1="175.688" y1="513.309" x2="383.065" y2="537.244" gradientUnits="userSpaceOnUse">
<stop stopColor="white" stop-opacity="0"/>
<stop offset="0.5" stopColor="white"/>
<stop offset="1" stopColor="white" stop-opacity="0"/>
</linearGradient>
<linearGradient id="paint13_linear_1941_46606" x1="189.586" y1="542.126" x2="398.359" y2="571.085" gradientUnits="userSpaceOnUse">
<stop stopColor="white" stop-opacity="0"/>
<stop offset="0.5" stopColor="white"/>
<stop offset="1" stopColor="white" stop-opacity="0"/>
</linearGradient>
<linearGradient id="paint14_linear_1941_46606" x1="208.783" y1="565.139" x2="418.215" y2="594.768" gradientUnits="userSpaceOnUse">
<stop stopColor="white" stop-opacity="0"/>
<stop offset="0.5" stopColor="white"/>
<stop offset="1" stopColor="white" stop-opacity="0"/>
</linearGradient>
<linearGradient id="paint15_linear_1941_46606" x1="225.549" y1="585.633" x2="435.418" y2="619.352" gradientUnits="userSpaceOnUse">
<stop stopColor="white" stop-opacity="0"/>
<stop offset="0.5" stopColor="white"/>
<stop offset="1" stopColor="white" stop-opacity="0"/>
</linearGradient>
<linearGradient id="paint16_linear_1941_46606" x1="245.975" y1="605.831" x2="523.252" y2="128.045" gradientUnits="userSpaceOnUse">
<stop stopColor="white" stop-opacity="0"/>
<stop offset="0.5" stopColor="white"/>
<stop offset="1" stopColor="white" stop-opacity="0"/>
</linearGradient>
<linearGradient id="paint17_linear_1941_46606" x1="263.535" y1="625.657" x2="474.001" y2="662.455" gradientUnits="userSpaceOnUse">
<stop stopColor="white" stop-opacity="0"/>
<stop offset="0.5" stopColor="white"/>
<stop offset="1" stopColor="white" stop-opacity="0"/>
</linearGradient>
<linearGradient id="paint18_linear_1941_46606" x1="280.277" y1="644.142" x2="569.128" y2="148.844" gradientUnits="userSpaceOnUse">
<stop stopColor="white" stop-opacity="0"/>
<stop offset="0.5" stopColor="white"/>
<stop offset="1" stopColor="white" stop-opacity="0"/>
</linearGradient>
<linearGradient id="paint19_linear_1941_46606" x1="304.531" y1="660.434" x2="514.746" y2="695.883" gradientUnits="userSpaceOnUse">
<stop stopColor="white" stop-opacity="0"/>
<stop offset="0.5" stopColor="white"/>
<stop offset="1" stopColor="white" stop-opacity="0"/>
</linearGradient>
<linearGradient id="paint20_linear_1941_46606" x1="327.552" y1="673.878" x2="537.346" y2="706.476" gradientUnits="userSpaceOnUse">
<stop stopColor="white" stop-opacity="0"/>
<stop offset="0.5" stopColor="white"/>
<stop offset="1" stopColor="white" stop-opacity="0"/>
</linearGradient>
<linearGradient id="paint21_linear_1941_46606" x1="347.811" y1="691.128" x2="557.486" y2="723.929" gradientUnits="userSpaceOnUse">
<stop stopColor="white" stop-opacity="0"/>
<stop offset="0.5" stopColor="white"/>
<stop offset="1" stopColor="white" stop-opacity="0"/>
</linearGradient>
<linearGradient id="paint22_linear_1941_46606" x1="370.861" y1="704.27" x2="578.928" y2="730.575" gradientUnits="userSpaceOnUse">
<stop stopColor="white" stop-opacity="0"/>
<stop offset="0.5" stopColor="white"/>
<stop offset="1" stopColor="white" stop-opacity="0"/>
</linearGradient>
<linearGradient id="paint23_linear_1941_46606" x1="394.74" y1="715.801" x2="600.521" y2="734.859" gradientUnits="userSpaceOnUse">
<stop stopColor="white" stop-opacity="0"/>
<stop offset="0.5" stopColor="white"/>
<stop offset="1" stopColor="white" stop-opacity="0"/>
</linearGradient>
<linearGradient id="paint24_linear_1941_46606" x1="524.794" y1="556.164" x2="513.582" y2="549.538" gradientUnits="userSpaceOnUse">
<stop stopColor="white" stop-opacity="0"/>
<stop offset="0.5" stopColor="white"/>
<stop offset="1" stopColor="white" stop-opacity="0"/>
</linearGradient>
<linearGradient id="paint25_linear_1941_46606" x1="445.366" y1="734.92" x2="637.914" y2="727.395" gradientUnits="userSpaceOnUse">
<stop stopColor="white" stop-opacity="0"/>
<stop offset="0.5" stopColor="white"/>
<stop offset="1" stopColor="white" stop-opacity="0"/>
</linearGradient>
<linearGradient id="paint26_linear_1941_46606" x1="559.707" y1="601.517" x2="548.475" y2="594.924" gradientUnits="userSpaceOnUse">
<stop stopColor="white" stop-opacity="0"/>
<stop offset="0.5" stopColor="white"/>
<stop offset="1" stopColor="white" stop-opacity="0"/>
</linearGradient>
<linearGradient id="paint27_linear_1941_46606" x1="513.665" y1="721.801" x2="692.827" y2="698.28" gradientUnits="userSpaceOnUse">
<stop stopColor="white" stop-opacity="0"/>
<stop offset="0.5" stopColor="white"/>
<stop offset="1" stopColor="white" stop-opacity="0"/>
</linearGradient>
<linearGradient id="paint28_linear_1941_46606" x1="629.646" y1="586.252" x2="618.404" y2="579.675" gradientUnits="userSpaceOnUse">
<stop stopColor="white" stop-opacity="0"/>
<stop offset="0.5" stopColor="white"/>
<stop offset="1" stopColor="white" stop-opacity="0"/>
</linearGradient>
<clipPath id="clip0_1941_46606">
<rect width="964.271" height="563.518" fill="white" transform="translate(281.758) rotate(30)"/>
</clipPath>
</defs>
</svg>
