<svg width="114" height="114" viewBox="0 0 114 114" fill="none" xmlns="http://www.w3.org/2000/svg">
<path d="M112.518 59.6669L112.649 57.2396L106.127 56.8869L106.074 57.8504L108.52 57.9827L108.433 59.5947C108.348 61.1698 109.179 61.958 110.346 62.0212C111.514 62.0843 112.419 61.5014 112.518 59.6669ZM109.249 59.6296L109.336 58.0267L111.782 58.159L111.695 59.7618C111.646 60.6605 111.167 61.0992 110.398 61.0576C109.703 61.02 109.2 60.5282 109.249 59.6296Z" fill="white"/>
<path d="M112.2 63.7193L105.762 62.6185L105.061 66.7157L105.866 66.8533L106.404 63.7072L112.038 64.6705L112.2 63.7193Z" fill="white"/>
<path d="M103.447 72.6005L103.134 73.6303L110.075 73.2563L110.506 71.8359L104.947 67.6645L104.634 68.6943L105.972 69.6534L105.092 72.5476L103.447 72.6005ZM106.675 70.1482L109.416 72.1058C109.52 72.1764 109.616 72.2442 109.762 72.3079C109.812 72.3329 109.866 72.3491 109.847 72.4112C109.828 72.4734 109.774 72.4572 109.719 72.4499C109.562 72.4218 109.445 72.4249 109.319 72.4254L105.952 72.5274L106.675 70.1482Z" fill="white"/>
<path d="M108.919 76.8022L104.375 77.4045L101.972 76.3239L101.576 77.204L103.98 78.2845L106.545 82.0827L107.001 81.0673L105.176 78.4969C105.114 78.4081 105.011 78.321 104.909 78.2546C104.862 78.2233 104.832 78.1997 104.855 78.1489C104.877 78.0981 104.915 78.1049 104.97 78.1192C105.087 78.1518 105.221 78.1712 105.328 78.1585L108.462 77.8177L108.919 76.8022Z" fill="white"/>
<path d="M104.671 85.5157L97.9869 83.7045L97.1446 84.927L101.218 90.5278L101.829 89.6415L98.2808 85.0113C98.2026 84.9123 98.1167 84.808 97.9973 84.7032C97.9567 84.664 97.9367 84.6277 97.963 84.5895C97.9893 84.5513 98.0304 84.5571 98.0815 84.581C98.2219 84.6552 98.35 84.6984 98.4704 84.7362L104.061 86.402L104.671 85.5157Z" fill="white"/>
<path d="M94.3393 88.558L99.3277 92.775L99.9506 92.038L94.9622 87.8211L94.3393 88.558Z" fill="white"/>
<path d="M96.2023 96.1765L97.7873 94.6257L93.2191 89.9568L91.6341 91.5077C89.9297 93.1753 90.3702 94.8991 91.5771 96.1327C92.7841 97.3662 94.4581 97.8831 96.2023 96.1765ZM92.0526 92.2405L93.1004 91.2153L96.5266 94.7169L95.4787 95.7421C94.3778 96.8193 93.1363 96.3465 92.2668 95.4578C91.3973 94.5691 90.9517 93.3177 92.0526 92.2405Z" fill="white"/>
<path d="M88.4082 101.725L88.9028 102.375L92.328 99.7667L88.3708 94.5698L84.9456 97.1779L85.4403 97.8275L88.0978 95.804L89.3344 97.428L87.1493 99.0918L87.644 99.7414L89.829 98.0776L91.0656 99.7016L88.4082 101.725Z" fill="white"/>
<path d="M84.6273 105.16C86.3523 104.158 86.637 102.265 85.7096 100.668C84.7822 99.0717 82.9969 98.3812 81.272 99.3831C79.547 100.385 79.2623 102.278 80.1897 103.875C81.1171 105.471 82.9023 106.162 84.6273 105.16ZM81.6821 100.089C82.8855 99.3901 84.1715 99.9415 84.8752 101.153C85.5789 102.364 85.4207 103.755 84.2172 104.454C83.0137 105.153 81.7278 104.601 81.0241 103.39C80.3204 102.178 80.4786 100.788 81.6821 100.089Z" fill="white"/>
<path d="M69.5302 109.333C70.3786 109.131 70.8871 108.303 70.6846 107.455C70.48 106.598 69.655 106.098 68.8066 106.301C67.9583 106.503 67.4476 107.321 67.6522 108.179C67.8547 109.027 68.6819 109.535 69.5302 109.333Z" fill="white"/>
<path d="M53.8478 112.529L56.2761 112.642L56.5785 106.117L55.6146 106.072L55.5012 108.519L53.8885 108.444C52.3129 108.371 51.531 109.208 51.4769 110.376C51.4228 111.544 52.0127 112.444 53.8478 112.529ZM53.86 109.26L55.4634 109.335L55.35 111.781L53.7466 111.707C52.8476 111.665 52.4052 111.19 52.4408 110.421C52.473 109.725 52.9609 109.219 53.86 109.26Z" fill="white"/>
<path d="M49.8213 112.243L50.8728 105.796L46.7703 105.127L46.6389 105.933L49.789 106.447L48.8689 112.088L49.8213 112.243Z" fill="white"/>
<path d="M40.8825 103.557L39.8503 103.252L40.2768 110.19L41.7005 110.61L45.8297 105.019L44.7976 104.714L43.8486 106.059L40.9479 105.202L40.8825 103.557ZM43.3591 106.766L41.4223 109.522C41.3526 109.627 41.2854 109.723 41.2229 109.869C41.1982 109.92 41.1824 109.973 41.1202 109.955C41.0579 109.937 41.0737 109.883 41.0805 109.827C41.1074 109.671 41.1034 109.553 41.102 109.427L40.9745 106.061L43.3591 106.766Z" fill="white"/>
<path d="M36.8121 109.091L36.1591 104.554L37.2127 102.139L36.3283 101.753L35.2747 104.168L31.5054 106.776L32.5259 107.221L35.0757 105.367C35.1638 105.304 35.2497 105.2 35.315 105.097C35.3457 105.05 35.3691 105.019 35.4201 105.042C35.4711 105.064 35.4648 105.102 35.4511 105.156C35.4198 105.274 35.4019 105.408 35.4158 105.515L35.7916 108.645L36.8121 109.091Z" fill="white"/>
<path d="M28.0088 104.902L29.771 98.2043L28.5424 97.371L22.9716 101.485L23.8623 102.089L28.4664 98.5078C28.5649 98.4288 28.6685 98.3421 28.7724 98.222C28.8113 98.1812 28.8475 98.1609 28.8859 98.1869C28.9243 98.2129 28.9188 98.2541 28.8953 98.3054C28.8221 98.4463 28.7799 98.5746 28.7429 98.6953L27.1181 104.298L28.0088 104.902Z" fill="white"/>
<path d="M24.9388 94.6393L20.7766 99.6734L21.5203 100.288L25.6825 95.2541L24.9388 94.6393Z" fill="white"/>
<path d="M17.3548 96.5874L18.9228 98.1554L23.5416 93.5366L21.9735 91.9686C20.2874 90.2825 18.5685 90.7417 17.3482 91.962C16.1279 93.1823 15.6293 94.8619 17.3548 96.5874ZM21.2453 92.395L22.2819 93.4316L18.8178 96.8957L17.7812 95.8591C16.6921 94.77 17.1514 93.5235 18.0305 92.6443C18.9097 91.7652 20.1562 91.3059 21.2453 92.395Z" fill="white"/>
<path d="M11.6958 88.7994L11.0499 89.2988L13.6829 92.7049L18.8508 88.7099L16.2177 85.3038L15.5717 85.8032L17.6146 88.4458L15.9997 89.6943L14.32 87.5214L13.674 88.0208L15.3537 90.1936L13.7387 91.4421L11.6958 88.7994Z" fill="white"/>
<path d="M8.23067 85.0616C9.2453 86.7792 11.1402 87.0499 12.73 86.1108C14.3197 85.1717 14.9971 83.3814 13.9824 81.6638C12.9678 79.9463 11.0729 79.6755 9.48316 80.6147C7.89344 81.5538 7.21605 83.3441 8.23067 85.0616ZM13.2794 82.0791C13.9873 83.2774 13.4454 84.5674 12.2392 85.28C11.0329 85.9926 9.64154 85.8446 8.93367 84.6463C8.22579 83.4481 8.76768 82.1581 9.97395 81.4455C11.1802 80.7329 12.5716 80.8808 13.2794 82.0791Z" fill="white"/>
<path d="M3.94975 70.1213C4.16185 70.9673 4.99481 71.4663 5.84079 71.2542C6.69578 71.0399 7.18579 70.2092 6.97369 69.3632C6.76159 68.5172 5.93763 68.0159 5.08265 68.2303C4.23666 68.4424 3.73765 69.2753 3.94975 70.1213Z" fill="white"/>
<path d="M0.572802 54.5656L0.48838 56.9951L7.0164 57.2219L7.04991 56.2575L4.6019 56.1725L4.65797 54.559C4.71275 52.9826 3.86689 52.2105 2.69852 52.1699C1.53015 52.1293 0.636602 52.7296 0.572802 54.5656ZM3.84165 54.5399L3.7859 56.1441L1.33789 56.0591L1.39364 54.4549C1.42489 53.5554 1.89537 53.1076 2.66501 53.1343C3.36046 53.1585 3.8729 53.6405 3.84165 54.5399Z" fill="white"/>
<path d="M0.807479 50.5161L7.26591 51.4934L7.88784 47.3835L7.08054 47.2614L6.60298 50.4172L0.951857 49.562L0.807479 50.5161Z" fill="white"/>
<path d="M9.3792 41.4851L9.67251 40.4496L2.74048 40.9549L2.33591 42.3832L7.97333 46.4487L8.26664 45.4131L6.911 44.4795L7.73531 41.5692L9.3792 41.4851ZM6.19874 43.9981L3.42111 42.0927C3.31517 42.0241 3.21815 41.9581 3.07145 41.8972C3.02042 41.8731 2.96685 41.858 2.98455 41.7955C3.00225 41.733 3.05582 41.7481 3.11191 41.7544C3.26873 41.7795 3.38597 41.7742 3.51213 41.7713L6.87639 41.6056L6.19874 43.9981Z" fill="white"/>
<path d="M3.83859 37.3343L8.37 36.6475L10.793 37.683L11.1723 36.7957L8.74921 35.7602L6.11387 32.0105L5.67631 33.0343L7.54898 35.5701C7.61242 35.6578 7.71729 35.7429 7.82091 35.8074C7.86845 35.8378 7.89893 35.8609 7.87706 35.9121C7.85518 35.9633 7.8174 35.9573 7.76257 35.9439C7.64436 35.9136 7.51033 35.8967 7.40313 35.9114L4.27614 36.3105L3.83859 37.3343Z" fill="white"/>
<path d="M7.84529 28.6452L14.5617 30.3337L15.3815 29.096L11.2063 23.5707L10.612 24.468L14.2438 29.0325C14.3239 29.1301 14.4117 29.2327 14.533 29.3353C14.5743 29.3738 14.5949 29.4097 14.5693 29.4484C14.5437 29.4871 14.5025 29.4821 14.451 29.4591C14.3092 29.3874 14.1804 29.3467 14.0594 29.311L8.43961 27.7479L7.84529 28.6452Z" fill="white"/>
<path d="M18.2085 25.279L13.1442 21.1535L12.5348 21.9016L17.5991 26.0271L18.2085 25.279Z" fill="white"/>
<path d="M16.1486 17.752L14.592 19.3314L19.2442 23.9165L20.8008 22.3371C22.4746 20.6388 22.0029 18.9232 20.7738 17.7118C19.5446 16.5004 17.8615 16.014 16.1486 17.752ZM20.3691 21.612L19.34 22.6561L15.8509 19.2173L16.8799 18.1732C17.961 17.0762 19.2109 17.5264 20.0964 18.3991C20.9819 19.2718 21.4502 20.515 20.3691 21.612Z" fill="white"/>
<path d="M23.7822 12.0942L23.2758 11.4537L19.8987 14.1239L23.9499 19.2477L27.327 16.5776L26.8206 15.9371L24.2004 18.0088L22.9344 16.4075L25.0888 14.7042L24.5824 14.0637L22.428 15.7671L21.162 14.1659L23.7822 12.0942Z" fill="white"/>
<path d="M27.4516 8.59579C25.7454 9.62931 25.4956 11.5271 26.4522 13.1064C27.4088 14.6856 29.2065 15.3432 30.9127 14.3097C32.619 13.2762 32.8688 11.3784 31.9122 9.79912C30.9556 8.21986 29.1579 7.56227 27.4516 8.59579ZM30.4897 13.6113C29.2993 14.3324 28.0034 13.8048 27.2775 12.6064C26.5517 11.4081 26.6843 10.0152 27.8747 9.29416C29.0651 8.5731 30.361 9.10072 31.0868 10.2991C31.8127 11.4974 31.6801 12.8903 30.4897 13.6113Z" fill="white"/>
<path d="M42.5489 4.06459C41.7045 4.28311 41.2118 5.11984 41.4304 5.96418C41.6512 6.81751 42.4856 7.3012 43.33 7.08267C44.1743 6.86415 44.6693 6.03641 44.4485 5.18308C44.2299 4.33873 43.3932 3.84606 42.5489 4.06459Z" fill="white"/>
<path d="M58.0305 0.549582L55.6005 0.483911L55.424 7.01349L56.3886 7.03955L56.4548 4.59096L58.0686 4.63458C59.6454 4.67719 60.4109 3.82539 60.4425 2.65675C60.4741 1.4881 59.867 0.599212 58.0305 0.549582ZM58.0814 3.81813L56.4769 3.77477L56.543 1.32618L58.1476 1.36954C59.0473 1.39385 59.4987 1.86086 59.4779 2.63068C59.4591 3.3263 58.9811 3.84244 58.0814 3.81813Z" fill="white"/>
<path d="M62.1541 0.750762L61.2264 7.2165L65.3409 7.80689L65.4569 6.99867L62.2975 6.54534L63.1093 0.887816L62.1541 0.750762Z" fill="white"/>
<path d="M71.2855 9.25814L72.3232 9.54359L71.7654 2.61559L70.334 2.22187L66.3114 7.88994L67.3492 8.1754L68.2725 6.81272L71.1889 7.61494L71.2855 9.25814ZM68.7485 6.09683L70.6328 3.30483C70.7005 3.19837 70.7659 3.10086 70.8256 2.9537C70.8493 2.90248 70.8641 2.84881 70.9267 2.86603C70.9893 2.88326 70.9745 2.93694 70.9687 2.99307C70.9448 3.15008 70.951 3.26727 70.9548 3.39342L71.1461 6.75632L68.7485 6.09683Z" fill="white"/>
<path d="M75.11 3.5789L75.8475 8.10233L74.8392 10.5368L75.7307 10.9061L76.739 8.47158L80.459 5.79438L79.4303 5.36833L76.9156 7.2693C76.8287 7.33372 76.7447 7.43952 76.6814 7.54386C76.6515 7.59174 76.6288 7.62248 76.5773 7.60118C76.5259 7.57988 76.5315 7.54204 76.5443 7.48706C76.5733 7.36852 76.5887 7.2343 76.5728 7.12728L76.1386 4.00496L75.11 3.5789Z" fill="white"/>
<path d="M84.1682 7.66163L82.529 14.3902L83.7727 15.2009L89.2672 10.9853L88.3656 10.3976L83.8278 14.0628C83.7309 14.1436 83.6288 14.2322 83.5271 14.3542C83.489 14.3958 83.4532 14.4167 83.4143 14.3914C83.3754 14.366 83.3802 14.3248 83.4028 14.2731C83.4734 14.1308 83.5132 14.0018 83.548 13.8804L85.0699 8.24936L84.1682 7.66163Z" fill="white"/>
<path d="M87.3811 17.8175L91.451 12.7084L90.6963 12.1072L86.6264 17.2162L87.3811 17.8175Z" fill="white"/>
<path d="M94.8922 15.6771L93.2959 14.1378L88.7618 18.8397L90.358 20.379C92.0745 22.0342 93.7848 21.5438 94.9828 20.3015C96.1807 19.0593 96.6487 17.3709 94.8922 15.6771ZM91.0784 19.9394L90.0232 18.9218L93.4238 15.3953L94.479 16.4129C95.5877 17.4821 95.1512 18.7367 94.2882 19.6317C93.4251 20.5267 92.1871 21.0085 91.0784 19.9394Z" fill="white"/>
<path d="M100.652 23.2616L101.287 22.7483L98.5797 19.4006L93.5004 23.5076L96.2073 26.8553L96.8422 26.3419L94.7421 23.7445L96.3293 22.4611L98.0561 24.5967L98.6911 24.0833L96.9643 21.9477L98.5515 20.6643L100.652 23.2616Z" fill="white"/>
<path d="M104.369 27.1712C103.323 25.4726 101.423 25.2368 99.8512 26.205C98.279 27.1731 97.6347 28.9756 98.6807 30.6742C99.7267 32.3728 101.626 32.6086 103.199 31.6405C104.771 30.6723 105.415 28.8698 104.369 27.1712ZM99.3759 30.2461C98.6461 29.061 99.1642 27.7613 100.357 27.0266C101.55 26.2919 102.944 26.4143 103.674 27.5994C104.404 28.7844 103.885 30.0842 102.693 30.8188C101.5 31.5535 100.106 31.4311 99.3759 30.2461Z" fill="white"/>
<path d="M108.909 41.9493C108.681 41.1075 107.838 40.6244 106.997 40.8525C106.146 41.0831 105.672 41.923 105.9 42.7648C106.128 43.6066 106.961 44.0921 107.812 43.8615C108.654 43.6334 109.137 42.7911 108.909 41.9493Z" fill="white"/>
</svg>
