<svg width="16" height="16" viewBox="0 0 16 16" fill="none" xmlns="http://www.w3.org/2000/svg">
<path fill-rule="evenodd" clip-rule="evenodd" d="M0 7.83985C0 12.1694 3.51813 15.6797 7.83985 15.6797C12.1694 15.6797 15.6797 12.1616 15.6797 7.83985C15.6797 3.51029 12.1616 0 7.83985 0C3.51029 0 0 3.51813 0 7.83985ZM1.95996 7.83985C1.95996 4.59905 4.59219 1.95996 7.83985 1.95996C11.0806 1.95996 13.7197 4.59219 13.7197 7.83985C13.7197 11.0806 11.0875 13.7197 7.83985 13.7197C4.59905 13.7197 1.95996 11.0875 1.95996 7.83985ZM6.85987 8.81983H11.7598V6.85987H8.81983V3.91992H6.85987V8.81983Z" fill="white"/>
</svg>
