<svg width="22" height="22" viewBox="0 0 22 22" fill="none" xmlns="http://www.w3.org/2000/svg">
<path d="M10.1533 19.4971C10.095 19.4971 10.0372 19.4851 9.98377 19.4617C9.93031 19.4383 9.88226 19.4041 9.84266 19.3612L1.46628 10.3004C1.41044 10.24 1.37343 10.1646 1.35976 10.0835C1.3461 10.0024 1.35637 9.91903 1.38934 9.84366C1.4223 9.76829 1.47653 9.70417 1.54537 9.65914C1.61421 9.61411 1.69469 9.59013 1.77695 9.59012H5.80887C5.86941 9.59013 5.92924 9.60313 5.98433 9.62822C6.03942 9.65332 6.08848 9.68995 6.12821 9.73562L8.92763 12.9563C9.23017 12.3095 9.81583 11.2327 10.8436 9.92059C12.3629 7.98078 15.189 5.12793 20.0241 2.55258C20.1175 2.50281 20.2263 2.4899 20.3288 2.51638C20.4313 2.54286 20.5201 2.60682 20.5778 2.69563C20.6355 2.78443 20.6577 2.89162 20.6402 2.99604C20.6227 3.10046 20.5666 3.19451 20.4831 3.25962C20.4647 3.27405 18.6004 4.74213 16.4549 7.43116C14.4803 9.90574 11.8555 13.952 10.5639 19.1758C10.5412 19.2676 10.4884 19.3491 10.414 19.4074C10.3395 19.4656 10.2477 19.4973 10.1532 19.4973L10.1533 19.4971Z" fill="#3DD47E"/>
</svg>
