<svg width="36" height="36" viewBox="0 0 36 36" fill="none" xmlns="http://www.w3.org/2000/svg">
<path d="M28.8877 7.57986L28.8875 7.57967C28.0179 6.68724 26.5948 6.67386 25.7028 7.53829L25.7017 7.5394L25.6668 7.57437L25.7375 7.64509L25.6668 7.57438L18.2163 15.0243L10.7615 7.57875C10.7615 7.57874 10.7614 7.57872 10.7614 7.57871C9.88281 6.70019 8.45522 6.7002 7.57662 7.57875C6.69799 8.45731 6.69799 9.88484 7.57662 10.7634L15.0271 18.2133L7.57736 25.6625C7.57723 25.6626 7.5771 25.6627 7.57697 25.6629C6.68967 26.5322 6.67152 27.9549 7.54072 28.8469C8.41036 29.7394 9.8336 29.7528 10.7256 28.8838L10.7265 28.8828L10.7615 28.8479L10.6908 28.7772L10.7615 28.8479L18.2119 21.398L25.6624 28.8479C26.541 29.7264 27.9686 29.7264 28.8472 28.8479C29.7259 27.9693 29.7259 26.5418 28.8472 25.6632L21.3968 18.2133L28.8463 10.7643C28.8465 10.7642 28.8466 10.764 28.8467 10.7639C29.7388 9.89431 29.7521 8.47161 28.8877 7.57986ZM18.287 20.5649L18.2163 20.4942L8.0285 10.3159C7.39865 9.6861 7.39832 8.66488 8.02873 8.03039C8.65821 7.39684 9.67927 7.40019 10.3141 8.03076C10.3141 8.03079 10.3142 8.03082 10.3142 8.03085L17.8351 15.5512L18.1456 15.8617L18.2163 15.9324L18.287 15.8617L18.5975 15.5512L26.1186 8.03062C26.7486 7.40068 27.7698 7.40068 28.3997 8.03062C29.0297 8.66055 29.0297 9.6816 28.3997 10.3115L20.8786 17.8322L20.5681 18.1426L20.4974 18.2133L20.5681 18.284L20.8786 18.5945L28.3995 26.1149C29.0254 26.7448 29.0254 27.7662 28.3995 28.3962C27.7695 29.0259 26.7485 29.0259 26.1186 28.396L18.5975 20.8754L18.287 20.5649Z" fill="black" stroke="black" stroke-width="0.2"/>
</svg>
