<svg width="36" height="36" viewBox="0 0 36 36" fill="none" xmlns="http://www.w3.org/2000/svg">
<path d="M28.5469 23.9766H7.45312C6.09609 23.9766 4.99219 25.0805 4.99219 26.4375C4.99219 27.7945 6.09609 28.8984 7.45312 28.8984H28.5469C29.9039 28.8984 31.0078 27.7945 31.0078 26.4375C31.0078 25.0805 29.9039 23.9766 28.5469 23.9766ZM30.3047 26.4375C30.3047 27.4078 29.5172 28.1953 28.5469 28.1953H7.45312C6.48281 28.1953 5.69531 27.4078 5.69531 26.4375C5.69531 25.4672 6.48281 24.6797 7.45312 24.6797H28.5469C29.5172 24.6797 30.3047 25.4672 30.3047 26.4375ZM28.5469 7.10156H7.45312C6.09609 7.10156 4.99219 8.20547 4.99219 9.5625C4.99219 10.9195 6.09609 12.0234 7.45312 12.0234H28.5469C29.9039 12.0234 31.0078 10.9195 31.0078 9.5625C31.0078 8.20547 29.9039 7.10156 28.5469 7.10156ZM30.3047 9.5625C30.3047 10.5328 29.5172 11.3203 28.5469 11.3203H7.45312C6.48281 11.3203 5.69531 10.5328 5.69531 9.5625C5.69531 8.59219 6.48281 7.80469 7.45312 7.80469H28.5469C29.5172 7.80469 30.3047 8.59219 30.3047 9.5625ZM28.5469 15.5391H7.45312C6.09609 15.5391 4.99219 16.643 4.99219 18C4.99219 19.357 6.09609 20.4609 7.45312 20.4609H28.5469C29.9039 20.4609 31.0078 19.357 31.0078 18C31.0078 16.643 29.9039 15.5391 28.5469 15.5391ZM30.3047 18C30.3047 18.9703 29.5172 19.7578 28.5469 19.7578H7.45312C6.48281 19.7578 5.69531 18.9703 5.69531 18C5.69531 17.0297 6.48281 16.2422 7.45312 16.2422H28.5469C29.5172 16.2422 30.3047 17.0297 30.3047 18Z" fill="black"/>
</svg>